<svg xmlns="http://www.w3.org/2000/svg" xmlns:xlink="http://www.w3.org/1999/xlink" width="196" height="119" viewBox="0 0 196 119">
    <defs>
        <path id="a" d="M0 0h408v120H0z"/>
        <path id="c" d="M0 19.113V38h195.865V.226H0v18.887z"/>
        <path id="e" d="M.2.774H41.5v87.848H.201V.774z"/>
    </defs>
    <g fill="none" fill-rule="evenodd" transform="translate(-97 -1)">
        <mask id="b" fill="#fff">
            <use xlink:href="#a"/>
        </mask>
        <g mask="url(#b)">
            <g transform="translate(97 81.226)">
                <mask id="d" fill="#fff">
                    <use xlink:href="#c"/>
                </mask>
                <path fill="#2A4170" d="M0 19.113C0 8.683 43.846.226 97.933.226c54.087 0 97.932 8.456 97.932 18.887C195.865 29.544 152.02 38 97.933 38S0 29.544 0 19.113" mask="url(#d)"/>
            </g>
            <path fill="#2A4170" d="M115.165 64.42c-2.862-6.983-2.421-13.777.985-15.173 3.408-1.396 8.49 3.133 11.352 10.118 2.862 6.984 2.421 13.777-.985 15.174-3.408 1.396-8.49-3.134-11.352-10.118"/>
            <g transform="translate(236 .226)">
                <mask id="f" fill="#fff">
                    <use xlink:href="#e"/>
                </mask>
                <path fill="#78C3A1" d="M10.77 88.622s14.591-12.848 16.334-23.737c1.742-10.888-2.613-16.768-2.178-20.688.436-3.92 2.83-4.355 5.88-6.097 3.049-1.743 5.007-6.098 4.137-10.454-.87-4.355-2.612-5.444 3.92-11.977S38.208-.229 34.29.86c-3.92 1.09-5.445 3.702-4.356 9.8 1.088 6.098-1.307 9.364-5.444 9.8-4.139.435-9.8 3.05-9.8 9.8 0 6.751 2.83 11.977 1.524 15.026C14.909 48.334 4.89 52.254 1.406 61.62c-3.484 9.364.871 26.132 9.364 27.003" mask="url(#f)"/>
            </g>
            <path stroke="#FFF" stroke-width="3" d="M266.296 23.81c1.993-4.103 3.537-8.02 4.647-13.142M246.77 97.995s-1.742-28.092 6.97-48.563c3.21-7.545 6.006-13.02 8.4-17.578"/>
            <path stroke="#78C3A1" stroke-width="3" d="M229.227 89.755s7.187-.218 8.058-10.89c.87-10.67-5.227-10.67-3.267-17.638 1.96-6.97 6.098-7.186 4.573-13.937-1.524-6.751-11.542-6.534-10.888-13.285.653-6.75 3.484-7.622 3.048-15.244-.435-7.621-8.493-7.403-11.542-5.008-3.048 2.395-1.742 13.284 0 16.768 1.743 3.484 1.089 7.404-2.177 11.978-3.267 4.573-2.614 12.63 2.83 17.42 5.445 4.792 5.663 8.712 3.703 12.196-1.96 3.485-7.404 15.898 5.662 17.64zM259.48 87.89s-6.89-2.057-4.992-12.593c1.897-10.537 7.79-8.972 7.685-16.21-.105-7.239-4.048-8.51-.842-14.644 3.207-6.134 12.832-3.352 13.933-10.044 1.102-6.693-1.41-8.26.967-15.516 2.378-7.255 10.109-4.976 12.44-1.878 2.331 3.098-1.726 13.286-4.303 16.206-2.578 2.921-2.953 6.877-.97 12.136 1.981 5.258-.718 12.878-7.21 16.111-6.49 3.233-7.708 6.965-6.708 10.836 1 3.87 3.075 17.265-10 15.595z"/>
            <g>
                <path fill="#FFF" d="M147.701 74.199v24.2c0 .704.28 1.379.777 1.877l12.158 12.157a7.235 7.235 0 0 0 5.714 2.095l87.731-7.271a3.869 3.869 0 0 0 3.55-3.856V77.16a3.524 3.524 0 0 0-2.773-3.441l-23.288-5.087-3.446-.285 1.423-3.51-12.398-30.36-27.07-2.151s1.138-4.301 1.138-5.945c0 0-2.024-1.644-2.15-4.428-.127-2.783-.38-4.047-1.012-4.933-.633-.885-1.297-1.684-.277-2.23 1.02-.545 2.301-1.59 2.301-2.087 0-.498-3.036-3.44-3.297-4.483-.262-1.043-.878-1.304-1.092-1.233-.213.07-1.114 1.02-1.162 1.802-.047.783-2.75 2.847-3.036 2.894-.284.048-.735 1.423.143 2.11.878.689 2.206.665 2.23 1.329.023.664-.736 1.447-1.566 1.779-.83.332-1.47 4.815-1.47 4.815s-1.566 3.345-2.42 4.246c-.854.9-1.28 5.716-1.28 5.716l-33.539-1.471s-4.174 7.685-3.036 25.996c1.138 18.31 4.46 18.12 4.46 18.12l2.687-.125z"/>
                <path fill="#EBB05E" d="M153.661 71.134l8.4 4.05a6.394 6.394 0 0 0 2.94.632l79.772-2.059-15.215-3.848-75.897 1.225z"/>
                <path stroke="#2A4170" stroke-width="2" d="M147.701 74.199v24.2c0 .704.28 1.379.777 1.877l12.158 12.157a7.235 7.235 0 0 0 5.714 2.095l87.731-7.271a3.869 3.869 0 0 0 3.55-3.856V77.16a3.524 3.524 0 0 0-2.773-3.441l-23.288-5.087-3.446-.285 1.423-3.51-12.398-30.36-27.07-2.151s1.138-4.301 1.138-5.945c0 0-2.024-1.644-2.15-4.428-.127-2.783-.38-4.047-1.012-4.933-.633-.885-1.297-1.684-.277-2.23 1.02-.545 2.301-1.59 2.301-2.087 0-.498-3.036-3.44-3.297-4.483-.262-1.043-.878-1.304-1.092-1.233-.213.07-1.114 1.02-1.162 1.802-.047.783-2.75 2.847-3.036 2.894-.284.048-.735 1.423.143 2.11.878.689 2.206.665 2.23 1.329.023.664-.736 1.447-1.566 1.779-.83.332-1.47 4.815-1.47 4.815s-1.566 3.345-2.42 4.246c-.854.9-1.28 5.716-1.28 5.716l-33.539-1.471s-4.174 7.685-3.036 25.996c1.138 18.31 4.46 18.12 4.46 18.12l2.687-.125z"/>
                <path stroke="#2A4170" d="M228.124 68.348l-80.075 1.328v5.408"/>
                <path stroke="#2A4170" d="M148.049 69.676l13.236 6.746a6.467 6.467 0 0 0 3.119.702l92.087-2.61M229.547 64.837s-7.59 1.14-19.481.886c-11.891-.253-62.618-.633-62.618-.633l-3.858-34.882M144.476 74.009s1.708-.95 2.973-8.918M175.29 32.058l14.658.585M183.31 23.788h2.53s1.14-6.705-.189-6.705c-1.328 0-2.34 6.706-2.34 6.706z"/>
                <path stroke="#2A4170" d="M164.525 36.122l38.203 2.15s10.373 1.645 13.662 9.868c3.29 8.222-5.692 10.878-8.095 11.005-2.404.126-42.125-.127-42.125-.127s-11.89-2.023-12.903-13.155c-1.013-11.133 11.258-9.741 11.258-9.741z"/>
                <path stroke="#2A4170" d="M213.228 57.532s-1.424-10.91-12.714-11.669c-11.29-.76-36.242-1.044-36.242-1.044s-9.676-.095-3.51 11.86M251.943 74.807v32.528M168.701 113.98V77.125M160.307 76.206v36.227M153.661 71.134l8.4 4.05a6.394 6.394 0 0 0 2.94.632l79.772-2.059-15.215-3.848-75.897 1.225z"/>
                <path fill="#EBB05E" d="M155.833 105.393s.5-14-1.666-14c-2.167 0-5.5 4.5-10 4.5s-20.5 1.666-18.167 6.166c2.333 4.5 23 9.667 26.167 9.334 3.166-.334 3.666-6 3.666-6"/>
                <path stroke="#2A4170" d="M155.833 105.393s.5-14-1.666-14c-2.167 0-5.5 4.5-10 4.5s-20.5 1.666-18.167 6.166c2.333 4.5 23 9.667 26.167 9.334 3.166-.334 3.666-6 3.666-6z"/>
            </g>
        </g>
    </g>
</svg>
