<svg xmlns="http://www.w3.org/2000/svg" xmlns:xlink="http://www.w3.org/1999/xlink" width="244" height="265" viewBox="0 0 244 265">
    <defs>
        <path id="a" d="M0 0h408v416H0z"/>
        <path id="c" d="M158.667 84.333V168H0V.666h158.667v83.667z"/>
        <path id="e" d="M.737.248h59.039v125.584H.736V.248z"/>
    </defs>
    <g fill="none" fill-rule="evenodd" transform="translate(-134 -67)">
        <mask id="b" fill="#fff">
            <use xlink:href="#a"/>
        </mask>
        <g mask="url(#b)">
            <g transform="translate(219 164)">
                <mask id="d" fill="#fff">
                    <use xlink:href="#c"/>
                </mask>
                <path fill="#2A4170" d="M0 84.333C0 38.125 35.519.666 79.333.666s79.334 37.46 79.334 83.667c0 46.208-35.52 83.667-79.334 83.667S0 130.541 0 84.333" mask="url(#d)"/>
            </g>
            <path fill="#2A4170" d="M205.333 168.666c0-42.894 18.356-77.666 41-77.666s41 34.772 41 77.666c0 42.895-18.356 77.667-41 77.667s-41-34.772-41-77.667"/>
            <path fill="#2A4170" d="M134 259.666C134 230.58 168.772 207 211.667 207c42.894 0 77.666 23.58 77.666 52.666 0 29.087-34.772 52.667-77.666 52.667-42.895 0-77.667-23.58-77.667-52.667"/>
            <path fill="#2A4170" d="M157.333 201.166c0-21.078 20.073-38.166 44.834-38.166C226.928 163 247 180.088 247 201.166c0 21.08-20.072 38.167-44.833 38.167s-44.834-17.088-44.834-38.167M160.667 87.666C160.667 76.253 168.427 67 178 67c9.573 0 17.333 9.253 17.333 20.666 0 11.414-7.76 20.667-17.333 20.667-9.573 0-17.333-9.253-17.333-20.667"/>
            <g>
                <g transform="translate(293 141.752)">
                    <mask id="f" fill="#fff">
                        <use xlink:href="#e"/>
                    </mask>
                    <path fill="#78C3A1" d="M15.847 125.832s20.858-18.367 23.35-33.933c2.49-15.566-3.738-23.971-3.115-29.575.623-5.603 4.047-6.226 8.406-8.717 4.358-2.491 7.16-8.716 5.915-14.943s-3.736-7.783 5.603-17.122c9.34-9.34-.933-22.727-6.537-21.17-5.603 1.557-7.783 5.293-6.226 14.01 1.556 8.717-1.869 13.386-7.784 14.009-5.914.623-14.008 4.358-14.008 14.008 0 9.652 4.046 17.123 2.18 21.482-1.869 4.358-16.189 9.962-21.17 23.348-4.982 13.387 1.244 37.358 13.386 38.603" mask="url(#f)"/>
                </g>
                <path stroke="#FFF" stroke-width="3" d="M336.76 174.608c2.85-5.865 5.057-11.465 6.643-18.786M308.847 280.659s-2.49-40.16 9.962-69.423c4.59-10.786 8.588-18.612 12.01-25.13"/>
                <path stroke="#78C3A1" stroke-width="3" d="M283.768 268.88s10.273-.312 11.52-15.565c1.244-15.255-7.473-15.255-4.67-25.217 2.8-9.962 8.715-10.274 6.536-19.924-2.179-9.651-16.499-9.34-15.566-18.99.935-9.652 4.982-10.897 4.36-21.792-.623-10.897-12.143-10.585-16.5-7.16-4.36 3.423-2.492 18.99 0 23.97 2.49 4.982 1.555 10.585-3.114 17.122-4.67 6.538-3.736 18.057 4.047 24.906 7.783 6.849 8.094 12.453 5.292 17.433-2.8 4.982-10.585 22.727 8.095 25.217zM327.016 266.213s-9.85-2.938-7.137-18.001c2.712-15.063 11.137-12.825 10.987-23.173-.15-10.347-5.788-12.167-1.204-20.934 4.583-8.77 18.343-4.791 19.918-14.36 1.575-9.566-2.017-11.808 1.382-22.18 3.4-10.371 14.451-7.113 17.784-2.684 3.334 4.428-2.467 18.993-6.153 23.168-3.685 4.175-4.222 9.83-1.386 17.348 2.835 7.516-1.024 18.41-10.304 23.03-9.28 4.623-11.02 9.959-9.59 15.492 1.43 5.533 4.395 24.682-14.297 22.294z"/>
            </g>
            <g>
                <path fill="#FFF" d="M208.194 252.5h96.698a6.694 6.694 0 0 1 6.688 6.979l-2.564 60.4a3.433 3.433 0 0 1-3.43 3.288H207.5a3.433 3.433 0 0 1-3.43-3.287l-2.564-60.401a6.694 6.694 0 0 1 6.688-6.98"/>
                <path stroke="#2A4170" d="M208.194 252.5h96.698a6.694 6.694 0 0 1 6.688 6.979l-2.564 60.4a3.433 3.433 0 0 1-3.43 3.288H207.5a3.433 3.433 0 0 1-3.43-3.287l-2.564-60.401a6.694 6.694 0 0 1 6.688-6.98z"/>
                <path fill="#FFF" d="M205.21 323.167h102.25v1.58a1.42 1.42 0 0 1-1.42 1.42h-99.41a1.42 1.42 0 0 1-1.42-1.42v-1.58z"/>
                <path stroke="#2A4170" d="M205.21 323.167h102.25v1.58a1.42 1.42 0 0 1-1.42 1.42h-99.41a1.42 1.42 0 0 1-1.42-1.42v-1.58z"/>
                <path fill="#2A4170" d="M236.706 288.875v-.04c0-3.926 2.939-7.142 7.122-7.142 2.131 0 3.532.632 4.735 1.559.257.197.474.533.474.967 0 .67-.533 1.184-1.203 1.184-.336 0-.572-.12-.731-.237-.947-.77-1.972-1.243-3.294-1.243-2.624 0-4.558 2.17-4.558 4.873v.04c0 2.703 1.914 4.893 4.558 4.893 1.46 0 2.446-.474 3.453-1.322.176-.158.433-.276.729-.276.611 0 1.145.513 1.145 1.124 0 .375-.178.67-.395.868-1.303 1.145-2.782 1.855-5.012 1.855-4.024 0-7.023-3.137-7.023-7.103M255.235 289.882h-2.802a1.082 1.082 0 0 1-1.085-1.086c0-.592.493-1.085 1.085-1.085h2.802v-2.742c0-.631.493-1.124 1.124-1.124.612 0 1.125.492 1.125 1.123v2.742h2.802c.592 0 1.085.494 1.085 1.086 0 .612-.493 1.086-1.085 1.086h-2.802v2.742c0 .63-.513 1.124-1.125 1.124a1.111 1.111 0 0 1-1.124-1.124v-2.742zM267.746 289.882h-2.802a1.082 1.082 0 0 1-1.085-1.086c0-.592.493-1.085 1.085-1.085h2.802v-2.742c0-.631.493-1.124 1.124-1.124.612 0 1.125.492 1.125 1.123v2.742h2.802c.592 0 1.085.494 1.085 1.086 0 .612-.493 1.086-1.085 1.086h-2.802v2.742c0 .63-.513 1.124-1.125 1.124a1.111 1.111 0 0 1-1.124-1.124v-2.742z"/>
            </g>
        </g>
    </g>
</svg>
