<svg width="24" height="24" viewBox="0 0 24 24" xmlns="http://www.w3.org/2000/svg"><title>9CBAB31C-B913-408D-A427-10C79624EE44</title><g fill="none" fill-rule="evenodd"><path d="M0 0h24v24H0z"/><path d="M22.367 6.045a11.935 11.935 0 0 0-4.362-4.363C16.168.61 14.163.075 11.987.075c-2.174 0-4.18.536-6.017 1.607a11.934 11.934 0 0 0-4.362 4.363C.536 7.882 0 9.887 0 12.062c0 2.612.762 4.96 2.287 7.047 1.524 2.086 3.493 3.53 5.907 4.331.281.053.49.016.625-.109a.61.61 0 0 0 .203-.468l-.008-.843c-.006-.53-.008-.994-.008-1.389l-.36.062a4.58 4.58 0 0 1-.865.055 6.6 6.6 0 0 1-1.085-.11 2.424 2.424 0 0 1-1.046-.467 1.98 1.98 0 0 1-.687-.96l-.156-.359a3.9 3.9 0 0 0-.491-.796c-.224-.291-.45-.489-.68-.593l-.109-.078a1.146 1.146 0 0 1-.202-.188.856.856 0 0 1-.14-.218c-.032-.073-.006-.133.077-.18.084-.047.234-.07.453-.07l.312.047c.208.042.465.166.773.374.306.208.559.479.756.812.24.427.528.752.867.975.338.224.679.336 1.022.336.343 0 .64-.026.89-.078.25-.052.483-.13.702-.234.094-.698.349-1.233.765-1.608a10.688 10.688 0 0 1-1.6-.281 6.37 6.37 0 0 1-1.467-.609 4.202 4.202 0 0 1-1.257-1.046c-.333-.416-.606-.962-.819-1.639-.213-.676-.32-1.456-.32-2.34 0-1.26.411-2.332 1.233-3.216-.385-.947-.349-2.008.11-3.184.301-.094.749-.024 1.342.21.593.234 1.027.435 1.303.601.276.167.497.308.663.422.968-.27 1.967-.406 2.997-.406 1.03 0 2.03.135 2.998.406l.593-.375a8.4 8.4 0 0 1 1.435-.687c.552-.208.974-.265 1.265-.171.468 1.176.51 2.237.125 3.184.822.884 1.233 1.956 1.233 3.215 0 .885-.107 1.668-.32 2.35-.213.681-.489 1.227-.827 1.638-.338.411-.76.757-1.264 1.038a6.382 6.382 0 0 1-1.468.609c-.473.125-1.007.219-1.6.281.541.468.812 1.207.812 2.217v3.293c0 .187.065.343.195.468.13.124.336.161.617.109 2.414-.801 4.383-2.245 5.908-4.331 1.524-2.087 2.286-4.436 2.286-7.048 0-2.174-.537-4.18-1.608-6.016z" fill-rule="nonzero" fill="#FFF"/></g></svg>