<svg xmlns="http://www.w3.org/2000/svg" width="18" height="18" viewBox="0 0 18 18">
    <g fill="none" fill-rule="evenodd">
        <path d="M0 0h17.959v17.959H0z"/>
        <path fill="#00586D" fill-rule="nonzero" d="M16.737 4.523a8.931 8.931 0 0 0-3.264-3.264A8.774 8.774 0 0 0 8.97.056a8.775 8.775 0 0 0-4.502 1.203 8.93 8.93 0 0 0-3.265 3.264A8.774 8.774 0 0 0 0 9.026c0 1.954.57 3.712 1.711 5.273 1.14 1.561 2.614 2.642 4.42 3.241.211.04.367.012.468-.081a.457.457 0 0 0 .152-.35l-.006-.631a104.31 104.31 0 0 1-.006-1.04l-.269.047a3.427 3.427 0 0 1-.648.04 4.939 4.939 0 0 1-.812-.081 1.814 1.814 0 0 1-.782-.35 1.482 1.482 0 0 1-.514-.718l-.117-.27a2.919 2.919 0 0 0-.368-.595c-.167-.218-.336-.366-.508-.444l-.081-.058a.857.857 0 0 1-.152-.14.64.64 0 0 1-.105-.164c-.024-.054-.004-.1.058-.134.062-.036.175-.053.339-.053l.233.035c.156.031.349.125.578.28.23.156.419.359.567.608.18.32.395.562.648.73.253.167.508.25.765.25s.479-.019.666-.057c.187-.04.362-.098.525-.176.07-.522.261-.923.573-1.203a7.998 7.998 0 0 1-1.198-.21 4.767 4.767 0 0 1-1.097-.456 3.144 3.144 0 0 1-.94-.782c-.25-.312-.454-.72-.614-1.227-.16-.506-.24-1.09-.24-1.752 0-.942.309-1.744.924-2.406-.289-.708-.261-1.502.081-2.382.226-.07.561-.018 1.005.157.444.176.769.326.975.45.207.124.372.23.497.315A8.294 8.294 0 0 1 8.97 4.39c.77 0 1.519.101 2.243.303l.444-.28a6.286 6.286 0 0 1 1.074-.514c.413-.155.728-.198.946-.128.35.88.382 1.674.094 2.382.615.662.923 1.464.923 2.407 0 .661-.08 1.247-.24 1.757-.16.51-.366.919-.619 1.227a3.265 3.265 0 0 1-.946.776c-.378.21-.744.362-1.098.456a7.99 7.99 0 0 1-1.197.21c.405.35.607.904.607 1.659v2.464c0 .14.049.257.146.35.098.094.251.121.462.082 1.806-.6 3.28-1.68 4.42-3.241 1.141-1.561 1.712-3.319 1.712-5.274a8.782 8.782 0 0 0-1.204-4.502z"/>
    </g>
</svg>
