<svg width="24" height="24" viewBox="0 0 24 24" xmlns="http://www.w3.org/2000/svg"><title>87C0BBF9-0E8D-48F9-AB0F-1D814A22DDB7</title><path d="M11.915 23.83C5.335 23.83 0 18.542 0 12.019S5.334.209 11.915.209c6.58 0 11.914 5.287 11.914 11.81 0 6.523-5.334 11.81-11.914 11.81zm7.118-10.973c0-2.585-1.404-3.787-3.278-3.787-1.513 0-2.188.818-2.567 1.39v.027h-.019l.02-.027V9.267H10.34c.038.79 0 8.416 0 8.416h2.848v-4.7c0-.253.02-.502.094-.682.207-.504.674-1.023 1.461-1.023 1.031 0 1.443.772 1.443 1.902v4.503h2.847v-4.826zM7.361 5.211c-.975 0-1.612.628-1.612 1.453 0 .808.619 1.455 1.574 1.455h.019c.993 0 1.61-.647 1.61-1.455-.018-.825-.617-1.453-1.591-1.453zM5.918 17.683h2.847V9.267H5.918v8.416z" fill-rule="nonzero" fill="#FFF"/></svg>