<svg width="113" height="113" viewBox="0 0 113 113" xmlns="http://www.w3.org/2000/svg"><title>B5E79030-C54C-4F42-8FBA-BE5690C38058</title><g transform="translate(0 -1)" fill-rule="nonzero" fill="none"><ellipse fill="#199A8F" cx="56.098" cy="57.09" rx="56.098" ry="56.1"/><path d="M89.616 61.07v22.926H76.207V62.607c0-5.37-1.936-9.038-6.791-9.038-3.705 0-5.906 2.47-6.878 4.86-.353.854-.444 2.04-.444 3.24v22.326h-13.41s.18-36.226 0-39.976h13.411v5.665c-.027.045-.065.089-.089.131h.089v-.13c1.782-2.719 4.96-6.604 12.085-6.604 8.822 0 15.436 5.713 15.436 17.99zm-54.96-36.32c-4.587 0-7.588 2.985-7.588 6.906 0 3.838 2.914 6.909 7.412 6.909h.087c4.677 0 7.585-3.071 7.585-6.91-.089-3.92-2.908-6.905-7.496-6.905zm-6.791 59.246H41.27V44.019H27.865v39.977z" fill="#FFF"/></g></svg>