<svg xmlns="http://www.w3.org/2000/svg" width="18" height="18" viewBox="0 0 18 18">
    <g fill="none" fill-rule="nonzero">
        <ellipse cx="8.936" cy="9.014" fill="#55678D" rx="8.936" ry="8.858"/>
        <path fill="#FFF" d="M14.275 9.643v3.62H12.14V9.884c0-.848-.308-1.427-1.082-1.427-.59 0-.94.39-1.095.768-.056.135-.07.322-.07.511v3.525H7.754s.029-5.72 0-6.312h2.136v.895l-.014.02h.014v-.02c.284-.43.79-1.043 1.925-1.043 1.406 0 2.46.902 2.46 2.84zM5.52 3.908c-.73 0-1.208.471-1.208 1.09 0 .606.464 1.091 1.18 1.091h.014c.745 0 1.208-.485 1.208-1.09-.014-.62-.463-1.091-1.194-1.091zM4.44 13.262h2.135V6.95H4.439v6.312z"/>
    </g>
</svg>
