<svg xmlns="http://www.w3.org/2000/svg" xmlns:xlink="http://www.w3.org/1999/xlink" width="19" height="19" viewBox="0 0 19 19">
    <defs>
        <path id="a" d="M0 0h14.464v14.464H0z"/>
    </defs>
    <g fill="none" fill-rule="evenodd" transform="translate(0 -.16)">
        <ellipse cx="9.016" cy="9.175" fill="#3B8686" fill-rule="nonzero" rx="9.016" ry="9.016"/>
        <g transform="translate(1.768 1.929)">
            <mask id="b" fill="#fff">
                <use xlink:href="#a"/>
            </mask>
            <path fill="#FFF" d="M11.361 12.07l-1.496 1.285a1.006 1.006 0 0 1-1.645-.626c-.052-.347-.127-.6-.226-.775l.436-.19c.014.04.021.091.021.155 0 .388.652.682.68.695l.039-.088c-.006-.003-.622-.281-.622-.607a.568.568 0 0 0-.03-.194l2.74-1.197.212 1.241a.326.326 0 0 1-.109.301zM5.818 9.697c.02-.08.05-.166.09-.254.047.557.22 2.469.422 2.923l-.304.133c-.028-.438-.1-1.524-.208-2.802zm-.635-1.84c.003-.105.085-.191.147-.24l.059.573c-.136-.12-.209-.234-.206-.334zM4.722 5.89c.05-.028.097-.06.142-.094.028.246.114.715.386 1.113l.03.254c-.431-.4-.534-1.032-.558-1.273zm-2.176-.32c.113-.053.243-.12.375-.2.142.017.276.026.401.026 1.323 0 1.69-.889 1.968-1.56.156-.376.29-.7.542-.798.157-.06.358-.03.614.092 1.302.621 2.291.263 2.722.031l-.014.018c-.193.092-1.392.626-2.373.331-1.098-.33-1.253.119-1.77 1.602a.917.917 0 0 1-.515.567c-.59.262-1.468.046-1.95-.11zm1.13-.98a.459.459 0 0 0 .2.058c.026 0 .05-.003.074-.01.146-.046.22-.222.32-.466.123-.294.29-.698.672-1.1.775-.817.965-.734 2.018-.279.136.06.285.124.452.193 1.032.431 1.704.04 2.019-.24a1.962 1.962 0 0 1-.12.216c-.202.142-1.285.815-2.824.08-.28-.133-.506-.164-.69-.094-.29.112-.432.454-.596.85-.3.727-.67 1.617-2.15 1.489.265-.18.513-.413.625-.697zm5.606-3.127c-.56-.083-1.949-.341-2.656-.937l-.06-.045c1.103-.026 2.211.365 2.716.982zm1.048 3.648c-.45-.75-.477-1.152-.405-1.363a.369.369 0 0 1 .104-.161c.032.092.062.188.089.286l.212 1.238zm1.055 1.4c.049.193-.088.446-.396.735l-.202-1.181c.202.06.539.208.598.446zm-.9 1.114c.058-.152.107-.295.145-.415l.07.06.509 2.975-.005-.01-.642.28c.17-.814-.054-2.705-.077-2.89zm-.394.858a5.59 5.59 0 0 0 .319-.666c.06.547.208 2.117.043 2.746l-.322.14c.184-.867-.024-2.124-.04-2.22zm-.459.587c.138-.115.265-.275.38-.458.052.352.183 1.422.01 2.14l-.385.168c.163-.735.008-1.77-.005-1.85zm-.32.169a.606.606 0 0 0 .233-.103c.032.238.146 1.192-.019 1.832l-.242.106c.117-.514.043-1.63.028-1.835zm-.365-.042c.089.041.179.06.27.055.031.441.074 1.493-.044 1.87l-.29.128c.14-.574.085-1.703.064-2.053zm-.612 2.292c.197-.665.143-2.204.128-2.562.124.062.252.133.384.215.033.505.07 1.677-.076 2.156l-.436.19zm-.467.204l.123-2.958c.121.038.245.085.373.144.03.628.054 2.142-.144 2.66l-.352.154zm-.469-3.057c.162.003.327.026.497.07l-.127 3.03-.269.118c-.043-.765-.093-2.907-.1-3.218zm-.5.058c.134-.034.268-.054.404-.059.007.306.06 2.522.103 3.26l-.27.118c-.258-1.108-.241-3.006-.237-3.32zm-.59.252c.04-.029.083-.055.13-.079.122-.06.243-.108.364-.146-.005.393-.014 2.242.243 3.328l.014-.003-.288.126c-.15-.36-.354-2.073-.464-3.226zm-.091.069c.052.534.271 2.709.468 3.195l-.27.117c-.183-.396-.366-2.306-.424-3.04H5.99c.06-.097.134-.19.228-.272zm3.235-5.244c-.105.451.01 1.275 1.103 2.662l.066.384C9.576 5.87 9.07 4.988 9.121 4.196c.041-.646.458-1.056.644-1.208.035.063.068.128.1.195-.074.04-.323.203-.412.589zm.92 1.591l.149.869c-.965-1.267-1.07-2.02-.976-2.435.078-.343.292-.488.36-.526.03.071.06.145.088.22a.451.451 0 0 0-.159.222c-.087.249-.053.734.538 1.65zM3.733 4.18a3.453 3.453 0 0 1 .003-.604.178.178 0 0 0 .115.045c.193 0 .41-.322.68-.726.273-.409.584-.872.895-1.018.717-.335.985-.325 2.446.545.523.311.963.4 1.308.263a.852.852 0 0 0 .364-.28 1.246 1.246 0 0 1-.028.118c-.172.206-.855.881-2.067.375-.166-.069-.315-.134-.45-.192-1.055-.456-1.306-.565-2.127.3-.394.416-.566.829-.69 1.13-.092.22-.158.379-.26.41-.054.017-.124.001-.216-.047.028-.1.04-.207.027-.319zm.14-1.44a.164.164 0 0 0 .11.046c.167 0 .332-.275.559-.651.315-.524.707-1.175 1.22-1.267.23-.04.46.035.706.232a3.906 3.906 0 0 0 3.063.84c.02.08.032.163.033.247a.808.808 0 0 1-.42.409c-.315.125-.726.039-1.223-.257-1.418-.845-1.75-.917-2.536-.549-.335.157-.654.632-.934 1.051-.232.346-.472.702-.61.683-.033-.005-.064-.034-.092-.087a5.07 5.07 0 0 1 .124-.698zM5.93.545C6.084.518 6.24.5 6.399.49c.056.03.111.066.165.111.78.658 2.312.908 2.8.973.014.022.029.044.042.067.04.067.071.136.096.205-.413.07-1.72.184-2.973-.821C6.264.812 6 .728 5.744.773c-.555.1-.96.772-1.285 1.312-.18.301-.368.609-.48.604-.028-.002-.054-.028-.076-.062.252-.898.82-1.862 2.027-2.081zM5.302 5.16c.516-1.483.595-1.613 1.396-1.373.84.253 1.784-.026 2.276-.216a1.878 1.878 0 0 0-.142.6c-.06.917.518 1.916 1.718 2.97-.186.58-.625 1.76-1.183 1.981a.472.472 0 0 1-.448-.05c-.955-.596-1.733-.686-2.522-.291a1.26 1.26 0 0 0-.6.667c-.126-1.434-.294-3.066-.495-4.288zm-.226.43c.051.34.1.704.146 1.082a2.669 2.669 0 0 1-.268-.95c.044-.04.085-.085.122-.132zm6.68 6.13l-.71-4.138c.496-.42.705-.804.62-1.142-.129-.512-.879-.676-.91-.683l-.013.056-.341-1.996-.003-.013a4.144 4.144 0 0 0-.522-1.193l-.109.071a1.378 1.378 0 0 0-.113-1.19C9.101.555 7.371-.01 5.878.262 4.92.435 4.194 1.06 3.78 2.064c-.357.868-.379 1.759-.335 2.148.068.616-.95 1.096-1.349 1.23l-.361.12.35.15c.048.02.905.38 1.736.38.213 0 .425-.025.621-.084.043.331.188.981.68 1.404-.1.088-.223.235-.229.434-.008.252.172.499.533.733.203 2.131.321 4.113.323 4.144l.012.207 1.966-.86c.06.095.144.294.206.702.072.48.384.865.835 1.033a1.273 1.273 0 0 0 1.285-.23l1.496-1.285a.617.617 0 0 0 .205-.57z" mask="url(#b)" transform="rotate(20 6.75 7.04)"/>
            <g fill="#FFF" fill-rule="nonzero" mask="url(#b)">
                <path d="M8.725 6.295a3.767 3.767 0 0 1-.082.172 6.54 6.54 0 0 1-.204.379c-.07.12-.137.224-.2.308-.101.134-.189.212-.25.222-.086.015-.185-.187-.262-.528a5.055 5.055 0 0 1-.091-.562l-.096.01a3.165 3.165 0 0 0 .023.179c.019.134.042.268.07.394.09.402.202.63.373.602.093-.015.194-.106.31-.259.066-.088.135-.195.207-.317a6.634 6.634 0 0 0 .29-.56l-.088-.04zM6.529 6.181a2.446 2.446 0 0 1-.045.145 4.19 4.19 0 0 1-.119.32c-.116.273-.233.44-.32.44-.071 0-.115-.192-.112-.505a4.788 4.788 0 0 1 .04-.549l-.096-.013a3.265 3.265 0 0 0-.02.19 4.882 4.882 0 0 0-.02.37c-.004.38.047.604.208.604.145 0 .276-.186.409-.5a4.284 4.284 0 0 0 .168-.475l-.093-.027zM6.872 6.27l2.025-.387-.015-.114-2.025.386z"/>
                <path d="M6.25 8.565l.086.045.15-.288-.53-.113a68.097 68.097 0 0 0 .494-1.002c.298-.618.463-.99.463-1.069 0-.067-.07-.117-.205-.175a3.449 3.449 0 0 0-.393-.132 9.133 9.133 0 0 0-.565-.142l-.02.095a5.53 5.53 0 0 1 .174.04c.131.03.263.064.385.1.156.044.286.088.38.128.095.04.147.078.147.086 0 .056-.176.452-.453 1.027a52.048 52.048 0 0 1-.48.973l-.042.084-.028.056.53.112-.092.175z"/>
            </g>
            <path fill="#FFF" d="M6.107 11.893l-1.928.16.964-4.017-.16-.482s-.162-.322 0-.483l.32-.321s-.482-1.446-.482-1.607c0-.16-1.767-.643-1.767-.964 0-.322.964-.322.964-.322s.482 0 .964-1.125S7.072 0 8.357.482c1.286.482 3.054 1.447 2.893 2.572-.16 1.125-.482 1.125-.482 1.125h.321v.964l-.321 2.09.482.481.16.482-.32.483-.644.16-.803 4.34-.322.321-2.089.804-.803-.322-.322-.803v-1.286z" mask="url(#b)"/>
        </g>
    </g>
</svg>
