<svg width="113" height="113" viewBox="0 0 113 113" xmlns="http://www.w3.org/2000/svg" xmlns:xlink="http://www.w3.org/1999/xlink"><title>2B9EF97F-ECAC-4406-ADDA-20BDE387E173</title><defs><path id="a" d="M0 0h90v90H0z"/></defs><g transform="translate(0 -1)" fill="none" fill-rule="evenodd"><ellipse fill="#199A8F" fill-rule="nonzero" cx="56.098" cy="57.09" rx="56.098" ry="56.1"/><g transform="translate(11 12)"><mask id="b" fill="#fff"><use xlink:href="#a"/></mask><path d="M70.693 75.105L61.381 83.1c-1.739 1.493-4.054 1.909-6.192 1.114-2.184-.813-3.696-2.686-4.044-5.011-.324-2.161-.786-3.738-1.402-4.82l2.71-1.184c.084.249.132.567.132.963 0 2.417 4.055 4.247 4.228 4.324l.244-.548c-.039-.018-3.872-1.748-3.872-3.776 0-.48-.06-.882-.179-1.205l17.04-7.448 1.322 7.724c.12.696-.139 1.414-.675 1.873zM36.198 60.34c.132-.497.318-1.035.563-1.58.291 3.46 1.367 15.36 2.623 18.188l-1.889.825a855.627 855.627 0 0 0-1.297-17.433zm-3.947-11.456c.017-.65.53-1.185.91-1.494.127 1.187.25 2.38.369 3.571-.844-.742-1.296-1.456-1.28-2.077zm-2.872-12.23c.315-.174.607-.37.887-.58.171 1.531.71 4.446 2.403 6.923.062.523.123 1.048.183 1.578-2.68-2.483-3.323-6.419-3.473-7.921zm-13.538-1.992a23.941 23.941 0 0 0 2.335-1.241c.885.103 1.719.159 2.494.159 8.23-.001 10.518-5.528 12.247-9.706.968-2.339 1.804-4.358 3.372-4.96.978-.376 2.227-.19 3.816.568 8.103 3.866 14.26 1.637 16.943.194-.03.038-.056.075-.087.113-1.205.569-8.663 3.892-14.768 2.06-6.83-2.05-7.798.737-11.008 9.967-.584 1.678-1.633 2.832-3.207 3.53-3.668 1.625-9.14.285-12.137-.684zm7.03-6.097c.476.24.887.365 1.25.365.16 0 .312-.023.458-.068.907-.28 1.362-1.377 1.992-2.895.76-1.832 1.802-4.342 4.182-6.849 4.818-5.077 5.999-4.566 12.555-1.73.844.365 1.775.768 2.81 1.2 6.424 2.683 10.601.25 12.563-1.497-.21.444-.458.892-.747 1.345-1.254.885-7.993 5.073-17.57.505-1.747-.834-3.15-1.026-4.29-.588-1.808.695-2.69 2.825-3.711 5.291-1.868 4.516-4.165 10.054-13.376 9.26 1.644-1.114 3.19-2.57 3.884-4.34zM57.753 9.11c-3.485-.517-12.125-2.124-16.525-5.83-.122-.103-.247-.19-.37-.28 6.86-.165 13.755 2.27 16.895 6.11zm6.522 22.7c-2.794-4.666-2.968-7.172-2.521-8.483.167-.491.42-.804.647-1.005.2.576.385 1.17.554 1.783l1.32 7.704zm6.567 8.707c.3 1.205-.55 2.776-2.466 4.574l-1.26-7.35c1.26.377 3.355 1.294 3.726 2.776zm-5.6 6.933c.358-.948.661-1.833.902-2.581.145.124.284.248.431.373l3.17 18.509-.028-.065-3.995 1.747c1.05-5.068-.34-16.831-.48-17.983zm-2.457 5.338c.758-1.318 1.425-2.763 1.988-4.143.37 3.406 1.296 13.175.266 17.086l-2 .874c1.143-5.396-.151-13.217-.254-13.817zm-2.85 3.65c.854-.713 1.647-1.71 2.367-2.847.319 2.193 1.134 8.85.054 13.313l-2.392 1.045c1.015-4.569.049-11.01-.03-11.51zm-1.993 1.054c.187-.042.374-.094.561-.169.301-.119.597-.278.885-.47.203 1.478.914 7.418-.114 11.398l-1.506.658c.725-3.194.266-10.14.174-11.417zm-2.273-.263a3.525 3.525 0 0 0 1.677.347c.197 2.744.464 9.285-.27 11.636l-1.81.79c.878-3.567.537-10.596.403-12.773zm-3.807 14.262c1.224-4.137.891-13.71.794-15.94.774.384 1.568.827 2.39 1.335.21 3.143.439 10.437-.473 13.42l-2.71 1.185zm-2.908 1.271l.766-18.404c.756.233 1.527.526 2.321.892.194 3.913.339 13.333-.897 16.554l-2.19.958zM46.04 53.74c1.006.02 2.03.162 3.087.443l-.786 18.848-1.675.733c-.266-4.757-.582-18.088-.626-20.024zm-3.11.363a11.68 11.68 0 0 1 2.509-.365c.044 1.904.37 15.689.64 20.282l-1.674.732c-1.607-6.893-1.505-18.699-1.476-20.65zm-3.68 1.567c.255-.177.524-.343.818-.49a14.691 14.691 0 0 1 2.258-.906c-.031 2.44-.084 13.949 1.516 20.707l.087-.02-1.791.782c-.932-2.235-2.207-12.898-2.888-20.073zm-.561.43c.321 3.324 1.687 16.855 2.91 19.879l-1.673.731c-1.142-2.465-2.285-14.35-2.643-18.922l-.014.002a7.2 7.2 0 0 1 1.42-1.69zm20.128-32.631c-.65 2.811.066 7.936 6.865 16.565l.41 2.393c-6.51-5.904-9.658-11.387-9.342-16.319.257-4.019 2.854-6.57 4.012-7.516.215.39.421.796.618 1.214-.461.253-2.009 1.265-2.563 3.663zm5.724 9.903l.926 5.405c-6.004-7.885-6.66-12.564-6.07-15.153.485-2.128 1.817-3.034 2.235-3.272.195.444.378.905.553 1.376-.335.245-.74.666-.99 1.38-.541 1.544-.328 4.562 3.346 10.264zm-41.313-7.36c-.09-.804-.113-2.137.015-3.76.172.148.358.24.564.27.051.009.103.012.154.012 1.202 0 2.546-2.007 4.23-4.52 1.703-2.542 3.633-5.424 5.57-6.33 4.462-2.09 6.13-2.028 15.22 3.386 3.255 1.938 5.993 2.49 8.137 1.64a5.299 5.299 0 0 0 2.267-1.744 7.75 7.75 0 0 1-.175.732c-1.072 1.283-5.32 5.485-12.86 2.337-1.034-.432-1.963-.834-2.805-1.198-6.562-2.838-8.121-3.513-13.229 1.868-2.456 2.587-3.522 5.156-4.3 7.033-.568 1.366-.978 2.354-1.615 2.55-.333.103-.769.006-1.341-.296a5.22 5.22 0 0 0 .168-1.98zm.87-8.966a1.02 1.02 0 0 0 .685.288c1.04 0 2.068-1.707 3.477-4.049 1.961-3.258 4.402-7.313 7.587-7.88 1.432-.257 2.871.215 4.399 1.44 8.04 6.449 16.46 5.665 19.054 5.222.131.505.205 1.019.211 1.541-.348.728-1.127 1.955-2.614 2.545-1.96.778-4.521.24-7.61-1.599-8.827-5.256-10.892-5.702-15.78-3.414-2.089.978-4.068 3.933-5.815 6.54-1.442 2.152-2.937 4.369-3.798 4.25-.201-.03-.394-.216-.57-.544.142-1.33.387-2.81.774-4.34zM36.896 3.396c.96-.174 1.938-.288 2.92-.35.349.184.691.413 1.026.694 4.858 4.092 14.384 5.649 17.42 6.054a7.384 7.384 0 0 1 .862 1.694c-2.569.431-10.702 1.144-18.501-5.112-1.648-1.32-3.288-1.847-4.88-1.563-3.454.615-5.972 4.8-7.996 8.162-1.128 1.873-2.289 3.785-2.99 3.757-.174-.013-.333-.177-.47-.389 1.568-5.587 5.1-11.582 12.609-12.947zm-3.908 28.716c3.212-9.225 3.707-10.034 8.688-8.54 5.232 1.57 11.101-.161 14.161-1.345a11.683 11.683 0 0 0-.88 3.735c-.38 5.706 3.221 11.917 10.689 18.477-1.157 3.608-3.89 10.952-7.364 12.328-.943.373-1.855.272-2.788-.311-5.94-3.712-10.78-4.27-15.693-1.814-1.98.99-3.1 2.617-3.735 4.153-.777-8.925-1.824-19.076-3.078-26.683zm-1.402 2.674c.317 2.118.62 4.385.907 6.734-1.21-2.318-1.566-4.799-1.667-5.911a7.21 7.21 0 0 0 .76-.823zm41.557 38.142l-4.41-25.746c3.086-2.61 4.383-5.001 3.853-7.105-.8-3.183-5.467-4.205-5.665-4.247l-.073.344-2.126-12.416-.019-.085c-.779-2.843-1.871-5.34-3.248-7.423l-.674.446c1.074-3.118.335-5.642-.703-7.401-3.45-5.847-14.211-9.36-23.504-7.67C30.61 2.71 26.099 6.59 23.527 12.844c-2.22 5.4-2.356 10.943-2.086 13.367.425 3.829-5.913 6.818-8.391 7.647l-2.25.752 2.182.93c.297.126 5.63 2.364 10.797 2.364 1.33 0 2.648-.151 3.867-.522.265 2.064 1.169 6.108 4.229 8.74-.626.548-1.383 1.46-1.423 2.698-.05 1.57 1.07 3.103 3.313 4.558a816.716 816.716 0 0 1 2.013 25.788l.076 1.289 12.23-5.346c.375.588.9 1.82 1.281 4.361.447 2.983 2.39 5.386 5.196 6.43a8.045 8.045 0 0 0 2.813.513c1.865 0 3.688-.666 5.18-1.947l9.312-7.994a3.837 3.837 0 0 0 1.277-3.543z" fill="#FFF" mask="url(#b)" transform="rotate(20 41.998 43.806)"/><g mask="url(#b)" fill-rule="nonzero" fill="#FFF"><path d="M54.29 39.17l-.136.292a43.715 43.715 0 0 1-1.643 3.135c-.434.743-.853 1.391-1.249 1.917-.629.835-1.172 1.32-1.548 1.383-.542.09-1.157-1.165-1.633-3.29a35.187 35.187 0 0 1-.57-3.494l-.596.06a35.785 35.785 0 0 0 .581 3.565c.561 2.505 1.257 3.928 2.316 3.751.58-.096 1.212-.66 1.93-1.614.411-.547.843-1.214 1.287-1.975a44.313 44.313 0 0 0 1.807-3.482l-.546-.249zM40.624 38.462a28.31 28.31 0 0 1-1.019 2.89c-.72 1.701-1.453 2.741-1.992 2.741-.441 0-.715-1.198-.694-3.146.008-.718.052-1.489.12-2.264a35.121 35.121 0 0 1 .122-1.15l-.595-.078a35.719 35.719 0 0 0-.124 1.176c-.07.789-.115 1.574-.123 2.31-.025 2.363.292 3.752 1.294 3.752.905 0 1.718-1.153 2.545-3.108a28.908 28.908 0 0 0 1.044-2.96l-.578-.163zM42.76 38.49l12.6-2-.094-.593-12.6 2z"/><path d="M38.895 53.292l.531.278.936-1.788-3.306-.701a423.936 423.936 0 0 0 .779-1.56 454.719 454.719 0 0 0 2.295-4.68c1.855-3.845 2.883-6.152 2.883-6.647 0-.416-.44-.73-1.275-1.089-.615-.263-1.447-.54-2.443-.825a56.827 56.827 0 0 0-3.216-.813 34.945 34.945 0 0 0-.303-.067l-.126.587.298.065a63.062 63.062 0 0 1 3.183.805c.973.278 1.783.548 2.37.8.587.251.912.484.912.537 0 .346-1.097 2.808-2.823 6.386l-.197.408a454.134 454.134 0 0 1-3.048 6.17l-.175.348 3.294.699-.57 1.087z"/></g><path d="M38 74l-12 1 6-25-1-3s-1-2 0-3l2-2s-3-9-3-10-11-4-11-6 6-2 6-2 3 0 6-7S44 0 52 3s19 9 18 16-3 7-3 7h2v6l-2 13 3 3 1 3-2 3-4 1-5 27-2 2-13 5-5-2-2-5v-8z" fill="#FFF" mask="url(#b)"/></g></g></svg>