<svg width="95" height="147" viewBox="0 0 95 147" xmlns="http://www.w3.org/2000/svg" xmlns:xlink="http://www.w3.org/1999/xlink"><title>7FC9201D-518C-4BD7-8000-B49EC4A9919F</title><defs><path id="a" d="M0 0h150v150H0z"/></defs><g transform="translate(-26 -3)" fill="none" fill-rule="evenodd"><mask id="b" fill="#fff"><use xlink:href="#a"/></mask><path d="M117.822 125.175l-15.52 13.323c-2.899 2.49-6.757 3.181-10.32 1.856-3.64-1.354-6.16-4.476-6.74-8.35-.54-3.603-1.31-6.23-2.338-8.033l4.516-1.974c.142.414.221.945.221 1.604 0 4.03 6.76 7.08 7.047 7.207l.406-.914c-.064-.029-6.453-2.912-6.453-6.293 0-.8-.1-1.469-.298-2.008l28.4-12.413 2.204 12.873a3.38 3.38 0 0 1-1.125 3.122zm-57.492-24.61c.22-.829.53-1.726.938-2.633.485 5.767 2.278 25.6 4.371 30.312l-3.147 1.375a1426.045 1426.045 0 0 0-2.162-29.055zM53.751 81.47c.03-1.082.883-1.974 1.518-2.49.211 1.98.416 3.967.614 5.952-1.407-1.236-2.16-2.427-2.132-3.462zm-4.786-20.383c.524-.29 1.012-.617 1.478-.967.285 2.552 1.183 7.41 4.005 11.538.103.872.205 1.748.305 2.63-4.468-4.137-5.538-10.697-5.788-13.2zm-22.564-3.32a39.902 39.902 0 0 0 3.892-2.069c1.475.173 2.865.265 4.157.265 13.716 0 17.53-9.212 20.412-16.176 1.613-3.898 3.006-7.264 5.62-8.268 1.63-.626 3.711-.315 6.36.948 13.505 6.443 23.767 2.728 28.238.323-.05.063-.094.126-.145.19-2.008.947-14.438 6.486-24.613 3.433-11.385-3.417-12.998 1.228-18.348 16.611-.972 2.796-2.72 4.72-5.345 5.883-6.113 2.71-15.232.475-20.228-1.14zm11.717-10.162c.793.4 1.48.61 2.082.61.268 0 .522-.039.765-.114 1.511-.468 2.27-2.296 3.32-4.825 1.267-3.054 3.003-7.238 6.97-11.415 8.03-8.462 9.998-7.61 20.924-2.885 1.408.61 2.96 1.281 4.685 2.002 10.705 4.47 17.668.415 20.937-2.496-.35.74-.763 1.487-1.245 2.241-2.089 1.476-13.322 8.456-29.283.842-2.91-1.389-5.249-1.71-7.15-.979-3.014 1.157-4.484 4.708-6.185 8.818-3.114 7.526-6.942 16.757-22.293 15.432 2.74-1.856 5.315-4.282 6.473-7.23zm58.136-32.42c-5.808-.863-20.208-3.542-27.54-9.718-.205-.17-.412-.317-.619-.468 11.434-.274 22.926 3.784 28.16 10.185zm10.87 37.831c-4.656-7.775-4.946-11.952-4.2-14.138.278-.818.698-1.339 1.078-1.675.332.961.641 1.95.923 2.973l2.2 12.84zM118.07 67.53c.502 2.008-.917 4.626-4.11 7.623l-2.098-12.25c2.1.628 5.59 2.157 6.208 4.627zm-9.333 11.555a92.98 92.98 0 0 0 1.504-4.302c.241.207.473.414.718.622l5.283 30.848-.047-.108-6.658 2.911c1.751-8.446-.566-28.052-.8-29.97zm-4.094 8.896c1.263-2.197 2.375-4.605 3.313-6.905.615 5.677 2.16 21.958.443 28.477l-3.332 1.456c1.903-8.993-.253-22.027-.424-23.028zm-4.75 6.084c1.423-1.189 2.744-2.85 3.944-4.746.532 3.656 1.89 14.75.09 22.19l-3.986 1.741c1.691-7.615.081-18.35-.049-19.185zm-3.323 1.757c.312-.07.624-.158.936-.282a7.877 7.877 0 0 0 1.475-.785c.338 2.464 1.523 12.365-.19 18.998l-2.51 1.097c1.208-5.324.443-16.9.29-19.028zm-3.788-.439c.924.431 1.857.623 2.795.578.33 4.573.773 15.476-.449 19.393l-3.016 1.318c1.462-5.946.893-17.66.67-21.289zm-6.344 23.77c2.04-6.895 1.485-22.849 1.322-26.566a48.598 48.598 0 0 1 3.983 2.224c.351 5.238.732 17.396-.788 22.367l-4.517 1.975zm-4.848 2.12l1.278-30.675a31.29 31.29 0 0 1 3.868 1.486c.323 6.522.564 22.223-1.495 27.591l-3.65 1.597zm-4.855-31.708a21.52 21.52 0 0 1 5.145.738l-1.309 31.414-2.792 1.221c-.443-7.928-.97-30.147-1.044-33.373zm-5.184.604a19.466 19.466 0 0 1 4.183-.607c.073 3.172.617 26.147 1.068 33.803l-2.79 1.22c-2.68-11.488-2.51-31.165-2.46-34.416zm-6.132 2.613c.425-.295.873-.572 1.363-.817a24.486 24.486 0 0 1 3.764-1.51c-.052 4.067-.14 23.248 2.526 34.511l.145-.034-2.985 1.305c-1.553-3.725-3.678-21.497-4.813-33.455zm-.935.715c.535 5.541 2.812 28.093 4.85 33.132l-2.788 1.22c-1.903-4.109-3.809-23.917-4.406-31.537l-.022.002a12.001 12.001 0 0 1 2.366-2.817zM98.03 39.113c-1.084 4.685.11 13.227 11.441 27.608l.683 3.988c-10.85-9.84-16.096-18.978-15.57-27.197.43-6.699 4.757-10.95 6.687-12.528a35.46 35.46 0 0 1 1.03 2.024c-.768.422-3.348 2.11-4.27 6.105zm9.54 16.505l1.543 9.01c-10.006-13.143-11.1-20.942-10.117-25.256.808-3.548 3.028-5.058 3.725-5.454.326.74.63 1.508.922 2.294-.559.407-1.234 1.11-1.65 2.298-.902 2.575-.547 7.604 5.577 17.108zM38.715 43.352c-.149-1.34-.188-3.562.025-6.267.286.246.597.4.94.451.085.013.171.018.257.018 2.003 0 4.243-3.344 7.05-7.533 2.837-4.237 6.054-9.04 9.282-10.55 7.438-3.482 10.216-3.379 25.366 5.643 5.427 3.231 9.99 4.152 13.563 2.734 1.74-.69 2.951-1.82 3.78-2.907-.076.404-.176.811-.294 1.22-1.786 2.14-8.867 9.142-21.434 3.895-1.722-.719-3.27-1.389-4.674-1.996-10.936-4.73-13.535-5.856-22.048 3.113-4.093 4.312-5.87 8.594-7.167 11.721-.946 2.278-1.629 3.924-2.692 4.252-.555.171-1.28.008-2.235-.495a8.7 8.7 0 0 0 .281-3.299zm1.45-14.944c.312.284.651.447 1.02.475.041.003.081.005.122.005 1.734 0 3.446-2.845 5.795-6.748 3.268-5.43 7.336-12.188 12.644-13.135 2.387-.427 4.786.36 7.332 2.402 13.4 10.747 27.432 9.441 31.757 8.702.218.843.341 1.7.352 2.57-.58 1.213-1.879 3.257-4.357 4.24-3.267 1.298-7.536.402-12.683-2.664-14.712-8.76-18.154-9.504-26.302-5.69-3.48 1.63-6.779 6.554-9.69 10.9-2.403 3.586-4.896 7.281-6.33 7.082-.336-.05-.657-.359-.95-.906a52.584 52.584 0 0 1 1.29-7.233zM61.492 5.66a41.98 41.98 0 0 1 4.867-.583 9.58 9.58 0 0 1 1.71 1.156c8.097 6.82 23.973 9.415 29.034 10.09.153.23.303.458.441.692.413.7.738 1.411.995 2.132-4.282.718-17.837 1.906-30.836-8.52-2.746-2.202-5.48-3.079-8.134-2.606-5.755 1.026-9.952 8-13.325 13.604-1.88 3.122-3.815 6.308-4.983 6.261-.29-.022-.555-.294-.783-.648 2.612-9.312 8.5-19.303 21.014-21.578zM54.98 53.52c5.354-15.376 6.18-16.723 14.481-14.233 8.72 2.617 18.502-.269 23.602-2.243a19.471 19.471 0 0 0-1.468 6.226c-.634 9.51 5.37 19.862 17.815 30.794-1.927 6.014-6.484 18.254-12.273 20.547-1.57.622-3.092.454-4.647-.518-9.899-6.187-17.965-7.118-26.155-3.023-3.299 1.65-5.167 4.362-6.225 6.921-1.294-14.874-3.04-31.793-5.13-44.472zm-2.336 4.457c.53 3.53 1.033 7.307 1.511 11.222-2.015-3.862-2.61-7.997-2.778-9.85.458-.423.878-.882 1.267-1.372zm69.261 63.57l-7.349-42.91c5.143-4.35 7.304-8.336 6.422-11.843-1.334-5.305-9.112-7.007-9.442-7.077l-.122.573-3.544-20.693-.03-.142c-1.299-4.739-3.12-8.9-5.414-12.372l-1.124.743c1.791-5.196.558-9.403-1.172-12.335C94.381 5.747 76.444-.109 60.956 2.71c-9.939 1.806-17.458 8.272-21.744 18.696-3.7 9-3.928 18.238-3.478 22.278.71 6.381-9.855 11.364-13.985 12.745L18 57.682l3.636 1.55c.495.21 9.384 3.94 17.995 3.94 2.216 0 4.413-.253 6.445-.87.442 3.44 1.948 10.18 7.048 14.565-1.043.915-2.305 2.435-2.37 4.497-.084 2.618 1.781 5.173 5.521 7.598 2.11 22.107 3.337 42.658 3.355 42.98l.127 2.147 20.382-8.91c.626.981 1.5 3.035 2.136 7.27.745 4.97 3.983 8.976 8.66 10.716 1.541.574 3.123.855 4.688.855 3.11 0 6.146-1.11 8.633-3.245l15.52-13.324a6.395 6.395 0 0 0 2.128-5.904z" fill="#231F1F" mask="url(#b)" transform="rotate(20 69.997 73.01)"/><g mask="url(#b)" fill-rule="nonzero" fill="#231F1F"><path d="M69.002 64.545a7.988 7.988 0 0 0-.888-1.277c-2.43-2.843-5.844-2.843-9.979 1.73l.742.67c3.735-4.13 6.444-4.13 8.477-1.75a7 7 0 0 1 1.023 1.607l.128.308h23.751v-1h-23.1a7.99 7.99 0 0 0-.154-.288z"/><path d="M70.935 60.5a9.27 9.27 0 0 0-1.163-1.21c-3.073-2.67-6.906-2.67-11.125 1.696l.719.695c3.836-3.968 7.065-3.968 9.75-1.637.397.344.743.713 1.037 1.08.175.219.29.385.346.474l.146.235h15.111v-1H71.188a8.34 8.34 0 0 0-.253-.332zM69.701 65.561l-.89-.455-11 21.488 8.01 3.204.37-.929-6.99-2.796zM73.521 69.705l.082.317a56.366 56.366 0 0 0 .993 3.35c.373 1.107.736 2.02 1.086 2.68.393.743.76 1.179 1.226 1.272 1.69.338 9.333-7.074 9.595-9.435l-.994-.11c-.203 1.832-7.361 8.773-8.405 8.564-.06-.012-.284-.278-.539-.76-.318-.602-.664-1.47-1.021-2.53a49.75 49.75 0 0 1-.974-3.285 30.047 30.047 0 0 1-.079-.306l-.97.243z"/><path d="M61.536 72.664a8.986 8.986 0 0 0 1.863-.494 12.672 12.672 0 0 0 1.027-.434c.177-2.028-.865-5.946-1.425-6.033-.14-.021-.886.502-1.793 1.347-.174.162-.354.335-.538.517a42.168 42.168 0 0 0-1.782 1.869c-.368 2.683.6 3.51 2.648 3.228zm-3.496-3.78a43.145 43.145 0 0 1 1.928-2.03c.191-.188.377-.367.558-.535 1.212-1.13 2.02-1.697 2.626-1.604 1.359.209 2.605 5.002 2.233 7.425l-.039.249-.222.117a13.666 13.666 0 0 1-1.377.601 9.95 9.95 0 0 1-2.075.548c-2.716.374-4.28-1.022-3.752-4.514l.022-.146.098-.11zM70.932 74.511a33.222 33.222 0 0 0 .418 1.767c.352 1.32.782 2.64 1.293 3.876 1.112 2.685 2.45 4.604 4.08 5.427 2.106 1.063 4.441.177 6.92-2.847l-.774-.634c-2.212 2.699-4.075 3.406-5.696 2.588-1.36-.686-2.578-2.434-3.606-4.917-.493-1.19-.909-2.47-1.25-3.75a32.226 32.226 0 0 1-.403-1.699l-.982.19zM63.818 74.967l-.143.252c-.12.204-.257.432-.41.677a25.444 25.444 0 0 1-1.422 2.055c-.888 1.15-1.753 2.018-2.535 2.485-1.048.625-1.806.488-2.455-.607l-.86.51c.948 1.6 2.329 1.85 3.827.956.913-.545 1.856-1.492 2.814-2.732a26.425 26.425 0 0 0 1.479-2.137 26.77 26.77 0 0 0 .581-.976l-.876-.483z"/><path d="M58.756 70.5c0 .979.686 1.75 1.5 1.75s1.5-.771 1.5-1.75-.686-1.75-1.5-1.75-1.5.771-1.5 1.75zm-1 0c0-1.507 1.106-2.75 2.5-2.75 1.395 0 2.5 1.243 2.5 2.75 0 1.506-1.105 2.75-2.5 2.75-1.394 0-2.5-1.244-2.5-2.75zM52 103.513a19.44 19.44 0 0 0 .99.526c.787.388 1.68.775 2.664 1.137 5.34 1.96 10.934 2.38 16.184.278.323-.13.644-.269.963-.418l-.423-.906c-.302.14-.605.273-.912.395-4.986 1.996-10.338 1.595-15.468-.288-.95-.349-1.81-.722-2.564-1.095-.45-.222-.763-.393-.922-.488l-.512.859z"/></g></g></svg>