<svg width="57" height="20" viewBox="0 0 57 20" xmlns="http://www.w3.org/2000/svg"><title>855F96CF-7DBF-4B27-8792-829071F449ED</title><g fill="none" fill-rule="evenodd"><path d="M-2-7h62v32H-2z"/><g fill="#FFF"><path d="M17 19.263h3.424V0H17zM23.191 19.263h3.424V0h-3.424zM37.546 15.444c-.622.647-1.388.97-2.299.97-.963 0-1.748-.323-2.357-.97-.609-.647-.913-1.486-.913-2.517 0-1.072.313-1.937.938-2.592.626-.656 1.408-.984 2.344-.984.929 0 1.697.34 2.306 1.022.609.68.914 1.532.914 2.554 0 1.03-.311 1.87-.933 2.517zm.792-7.511h-.051c-.954-1.107-2.21-1.66-3.768-1.66-.844 0-1.638.166-2.383.498a5.753 5.753 0 0 0-1.916 1.366c-.532.579-.951 1.282-1.258 2.108a7.603 7.603 0 0 0-.46 2.67c0 .97.153 1.867.46 2.689.307.82.73 1.515 1.271 2.082a5.686 5.686 0 0 0 1.941 1.322c.754.315 1.57.473 2.447.473 1.635 0 2.908-.588 3.819-1.763h.064v1.545h3.257V6.489h-3.423v1.444zM55.988 9.184c-.222-.707-.543-1.269-.964-1.686a3.988 3.988 0 0 0-1.457-.926c-.55-.2-1.177-.3-1.884-.3-.792 0-1.543.16-2.255.48a5.224 5.224 0 0 0-1.845 1.385h-.04V6.49h-3.422v12.774h3.423v-6.426c0-1.115.262-1.975.786-2.58.524-.604 1.228-.907 2.114-.907.835 0 1.452.24 1.852.715.4.477.6 1.304.6 2.48v6.73h3.424v-7.587c0-.962-.111-1.797-.332-2.504M11 12.403H7.34L11 5.994v6.41zM11 0L0 19.263h3.423l2.123-3.716H11v3.716h3.423V0H11z"/></g></g></svg>