<svg width="104" height="143" viewBox="0 0 104 143" xmlns="http://www.w3.org/2000/svg" xmlns:xlink="http://www.w3.org/1999/xlink"><title>004B82A2-70C7-455D-8A62-B7808E3A4219</title><defs><path id="a" d="M0 0h150v150H0z"/></defs><g transform="translate(-23 -6)" fill="none" fill-rule="evenodd"><mask id="b" fill="#fff"><use xlink:href="#a"/></mask><path d="M122.822 129.175l-15.52 13.323c-2.899 2.49-6.757 3.181-10.32 1.856-3.64-1.354-6.16-4.476-6.74-8.35-.54-3.603-1.31-6.23-2.338-8.033l4.516-1.974c.142.414.221.945.221 1.604 0 4.03 6.76 7.08 7.047 7.207l.406-.914c-.064-.029-6.453-2.912-6.453-6.293 0-.8-.1-1.469-.298-2.008l28.4-12.413 2.204 12.873a3.38 3.38 0 0 1-1.125 3.122zm-57.492-24.61c.22-.829.53-1.726.938-2.633.485 5.767 2.278 25.6 4.371 30.312l-3.147 1.375a1426.045 1426.045 0 0 0-2.162-29.055zM58.751 85.47c.03-1.082.883-1.974 1.518-2.49.211 1.98.416 3.967.614 5.952-1.407-1.236-2.16-2.427-2.132-3.462zm-4.786-20.383c.524-.29 1.012-.617 1.478-.967.285 2.552 1.183 7.41 4.005 11.538.103.872.205 1.748.305 2.63-4.468-4.137-5.538-10.697-5.788-13.2zm-22.564-3.32a39.902 39.902 0 0 0 3.892-2.069c1.475.173 2.865.265 4.157.265 13.716 0 17.53-9.212 20.412-16.176 1.613-3.898 3.006-7.264 5.62-8.268 1.63-.626 3.711-.315 6.36.948 13.505 6.443 23.767 2.728 28.238.323-.05.063-.094.126-.145.19-2.008.947-14.438 6.486-24.613 3.433-11.385-3.417-12.998 1.228-18.348 16.611-.972 2.796-2.72 4.72-5.345 5.883-6.113 2.71-15.232.475-20.228-1.14zm11.717-10.162c.793.4 1.48.61 2.082.61.268 0 .522-.039.765-.114 1.511-.468 2.27-2.296 3.32-4.825 1.267-3.054 3.003-7.238 6.97-11.415 8.03-8.462 9.998-7.61 20.924-2.885 1.408.61 2.96 1.281 4.685 2.002 10.705 4.47 17.668.415 20.937-2.496-.35.74-.763 1.487-1.245 2.241-2.089 1.476-13.322 8.456-29.283.842-2.91-1.389-5.249-1.71-7.15-.979-3.014 1.157-4.484 4.708-6.185 8.818-3.114 7.526-6.942 16.757-22.293 15.432 2.74-1.856 5.315-4.282 6.473-7.23zm58.136-32.42c-5.808-.863-20.208-3.542-27.54-9.718-.205-.17-.412-.317-.619-.468 11.434-.274 22.926 3.784 28.16 10.185zm10.87 37.831c-4.656-7.775-4.946-11.952-4.2-14.138.278-.818.698-1.339 1.078-1.675.332.961.641 1.95.923 2.973l2.2 12.84zM123.07 71.53c.502 2.008-.917 4.626-4.11 7.623l-2.098-12.25c2.1.628 5.59 2.157 6.208 4.627zm-9.333 11.555a92.98 92.98 0 0 0 1.504-4.302c.241.207.473.414.718.622l5.283 30.848-.047-.108-6.658 2.911c1.751-8.446-.566-28.052-.8-29.97zm-4.094 8.896c1.263-2.197 2.375-4.605 3.313-6.905.615 5.677 2.16 21.958.443 28.477l-3.332 1.456c1.903-8.993-.253-22.027-.424-23.028zm-4.75 6.084c1.423-1.189 2.744-2.85 3.944-4.746.532 3.656 1.89 14.75.09 22.19l-3.986 1.741c1.691-7.615.081-18.35-.049-19.185zm-3.323 1.757c.312-.07.624-.158.936-.282a7.877 7.877 0 0 0 1.475-.785c.338 2.464 1.523 12.365-.19 18.998l-2.51 1.097c1.208-5.324.443-16.9.29-19.028zm-3.788-.439c.924.431 1.857.623 2.795.578.33 4.573.773 15.476-.449 19.393l-3.016 1.318c1.462-5.946.893-17.66.67-21.289zm-6.344 23.77c2.04-6.895 1.485-22.849 1.322-26.566a48.598 48.598 0 0 1 3.983 2.224c.351 5.238.732 17.396-.788 22.367l-4.517 1.975zm-4.848 2.12l1.278-30.675a31.29 31.29 0 0 1 3.868 1.486c.323 6.522.564 22.223-1.495 27.591l-3.65 1.597zm-4.855-31.708a21.52 21.52 0 0 1 5.145.738l-1.309 31.414-2.792 1.221c-.443-7.928-.97-30.147-1.044-33.373zm-5.184.604a19.466 19.466 0 0 1 4.183-.607c.073 3.172.617 26.147 1.068 33.803l-2.79 1.22c-2.68-11.488-2.51-31.165-2.46-34.416zm-6.132 2.613c.425-.295.873-.572 1.363-.817a24.486 24.486 0 0 1 3.764-1.51c-.052 4.067-.14 23.248 2.526 34.511l.145-.034-2.985 1.305c-1.553-3.725-3.678-21.497-4.813-33.455zm-.935.715c.535 5.541 2.812 28.093 4.85 33.132l-2.788 1.22c-1.903-4.109-3.809-23.917-4.406-31.537l-.022.002a12.001 12.001 0 0 1 2.366-2.817zm33.547-54.384c-1.084 4.685.11 13.227 11.441 27.608l.683 3.988c-10.85-9.84-16.096-18.978-15.57-27.197.43-6.699 4.757-10.95 6.687-12.528a35.46 35.46 0 0 1 1.03 2.024c-.768.422-3.348 2.11-4.27 6.105zm9.54 16.505l1.543 9.01c-10.006-13.143-11.1-20.942-10.117-25.256.808-3.548 3.028-5.058 3.725-5.454.326.74.63 1.508.922 2.294-.559.407-1.234 1.11-1.65 2.298-.902 2.575-.547 7.604 5.577 17.108zM43.715 47.352c-.149-1.34-.188-3.562.025-6.267.286.246.597.4.94.451.085.013.171.018.257.018 2.003 0 4.243-3.344 7.05-7.533 2.837-4.237 6.054-9.04 9.282-10.55 7.438-3.482 10.216-3.379 25.366 5.643 5.427 3.231 9.99 4.152 13.563 2.734 1.74-.69 2.951-1.82 3.78-2.907-.076.404-.176.811-.294 1.22-1.786 2.14-8.867 9.142-21.434 3.895-1.722-.719-3.27-1.389-4.674-1.996-10.936-4.73-13.535-5.856-22.048 3.113-4.093 4.312-5.87 8.594-7.167 11.721-.946 2.278-1.629 3.924-2.692 4.252-.555.171-1.28.008-2.235-.495a8.7 8.7 0 0 0 .281-3.299zm1.45-14.944c.312.284.651.447 1.02.475.041.003.081.005.122.005 1.734 0 3.446-2.845 5.795-6.748 3.268-5.43 7.336-12.188 12.644-13.135 2.387-.427 4.786.36 7.332 2.402 13.4 10.747 27.432 9.441 31.757 8.702.218.843.341 1.7.352 2.57-.58 1.213-1.879 3.257-4.357 4.24-3.267 1.298-7.536.402-12.683-2.664-14.712-8.76-18.154-9.504-26.302-5.69-3.48 1.63-6.779 6.554-9.69 10.9-2.403 3.586-4.896 7.281-6.33 7.082-.336-.05-.657-.359-.95-.906a52.584 52.584 0 0 1 1.29-7.233zM66.492 9.66a41.98 41.98 0 0 1 4.867-.583 9.58 9.58 0 0 1 1.71 1.156c8.097 6.82 23.973 9.415 29.034 10.09.153.23.303.458.441.692.413.7.738 1.411.995 2.132-4.282.718-17.837 1.906-30.836-8.52-2.746-2.202-5.48-3.079-8.134-2.606-5.755 1.026-9.952 8-13.325 13.604-1.88 3.122-3.815 6.308-4.983 6.261-.29-.022-.555-.294-.783-.648 2.612-9.312 8.5-19.303 21.014-21.578zM59.98 57.52c5.354-15.376 6.18-16.723 14.481-14.233 8.72 2.617 18.502-.269 23.602-2.243a19.471 19.471 0 0 0-1.468 6.226c-.634 9.51 5.37 19.862 17.815 30.794-1.927 6.014-6.484 18.254-12.273 20.547-1.57.622-3.092.454-4.647-.518-9.899-6.187-17.965-7.118-26.155-3.023-3.299 1.65-5.167 4.362-6.225 6.921-1.294-14.874-3.04-31.793-5.13-44.472zm-2.336 4.457c.53 3.53 1.033 7.307 1.511 11.222-2.015-3.862-2.61-7.997-2.778-9.85.458-.423.878-.882 1.267-1.372zm69.261 63.57l-7.349-42.91c5.143-4.35 7.304-8.336 6.422-11.843-1.334-5.305-9.112-7.007-9.442-7.077l-.122.573-3.544-20.693-.03-.142c-1.299-4.739-3.12-8.9-5.414-12.372l-1.124.743c1.791-5.196.558-9.403-1.172-12.335-5.748-9.744-23.685-15.6-39.173-12.782-9.939 1.806-17.458 8.272-21.744 18.696-3.7 9-3.928 18.238-3.478 22.278.71 6.381-9.855 11.364-13.985 12.745L23 61.682l3.636 1.55c.495.21 9.384 3.94 17.995 3.94 2.216 0 4.413-.253 6.445-.87.442 3.44 1.948 10.18 7.048 14.565-1.043.915-2.305 2.435-2.37 4.497-.084 2.618 1.781 5.173 5.521 7.598 2.11 22.107 3.337 42.658 3.355 42.98l.127 2.147 20.382-8.91c.626.981 1.5 3.035 2.136 7.27.745 4.97 3.983 8.976 8.66 10.716 1.541.574 3.123.855 4.688.855 3.11 0 6.146-1.11 8.633-3.245l15.52-13.324a6.395 6.395 0 0 0 2.128-5.904z" fill="#231F1F" mask="url(#b)"/><g mask="url(#b)"><path d="M59.249 58.688l-.25.968 12.078 3.106.171-.387c4.413-9.956 8.177-15.558 11.287-17.567 2.127-1.374 3.695-.934 4.921.666a6.45 6.45 0 0 1 .864 1.533l.942-.336a7.438 7.438 0 0 0-1.012-1.806c-1.52-1.983-3.652-2.58-6.257-.897-3.275 2.116-7.075 7.735-11.487 17.615L59.25 58.688z" fill="#231F1F" fill-rule="nonzero"/><path fill="#231F1F" fill-rule="nonzero" d="M71.29 62.21l-.997-.075-2.068 27.91 5.136-2.766-.474-.88-3.53 1.9zM79.557 68.133a32.31 32.31 0 0 1-1.167-4.094 34.806 34.806 0 0 1-.354-1.856l-.99.145a35.8 35.8 0 0 0 .366 1.925 33.286 33.286 0 0 0 1.206 4.222c.9 2.472 2.005 4.356 3.364 5.424l.337.265.313-.293c.38-.354.91-1.133 1.426-2.439 1.263-3.199 1.736-7.929.98-14.484l-.994.115c.739 6.4.282 10.967-.916 14.002-.271.687-.559 1.232-.843 1.649a5.755 5.755 0 0 1-.054.078c-1.025-.98-1.92-2.591-2.674-4.659zM65.504 74.971c-.305-.43-.617-1.056-.914-1.915-.645-1.867-1.107-4.517-1.3-8.077l-.998.054c.197 3.647.675 6.387 1.353 8.35.567 1.643 1.165 2.486 1.619 2.789l.34.227.29-.29c.964-.963 1.559-2.321 1.855-3.966.265-1.47.273-3.023.128-4.475-.034-.346-.069-.601-.093-.744l-.986.164c.02.122.052.356.084.679.136 1.367.129 2.834-.117 4.199-.223 1.238-.627 2.272-1.232 3.045a4.291 4.291 0 0 1-.029-.04z"/><path d="M71.125 96.84s11.5-4.5 18.167.166c6.666 4.666-16.167 9.333-16.167 9.333s-5 .667-5.167-3.833c-.166-4.5 3.167-5.667 3.167-5.667" fill="#FFF"/><path d="M71.307 97.305a2.816 2.816 0 0 0-.43.208c-.334.191-.669.443-.982.761-.957.973-1.507 2.344-1.438 4.214.064 1.719.875 2.682 2.237 3.126.736.24 1.527.296 2.212.244.077-.006.13-.011.119-.009a97.14 97.14 0 0 0 2.699-.614 87.801 87.801 0 0 0 5.942-1.65c3.21-1.026 5.685-2.088 7.105-3.138 1.548-1.145 1.666-2.027.238-3.028-1.746-1.223-3.948-1.864-6.51-2.003-2.573-.139-5.345.23-8.093.932-.824.21-1.584.436-2.261.66-.405.135-.69.239-.838.297zm.522-1.245a34.431 34.431 0 0 1 2.33-.681c2.838-.725 5.706-1.107 8.395-.961 2.734.148 5.113.84 7.024 2.179 2.061 1.445 1.833 3.14-.213 4.654-1.531 1.132-4.086 2.23-7.395 3.287a88.773 88.773 0 0 1-6.01 1.67c-.717.173-1.383.327-1.98.459-.36.08-.617.134-.79.168a3.924 3.924 0 0 1-.21.02c-.803.06-1.716-.003-2.596-.29-1.742-.569-2.846-1.88-2.926-4.04-.08-2.15.577-3.785 1.724-4.952.65-.662 1.306-1.039 1.769-1.203.165-.064.464-.172.878-.31z" fill="#231F1F" fill-rule="nonzero"/><path d="M70.584 102.338c.098.008.28.02.535.031 2.457.113 5.292-.033 8-.644 2.745-.62 4.983-1.656 6.526-3.2l-.707-.706c-1.39 1.389-3.462 2.349-6.04 2.93-2.605.588-5.358.73-7.733.621a15.4 15.4 0 0 1-.5-.03l-.081.998z" fill="#231F1F" fill-rule="nonzero"/></g></g></svg>