<svg width="33" height="60" viewBox="0 0 33 60" xmlns="http://www.w3.org/2000/svg"><title>11F0471C-1946-4338-833C-9ACA3DAF5FFA</title><g fill="none" fill-rule="evenodd"><path d="M20.14 35.564l.244.97 9.993-2.507-.197-.524a69.815 69.815 0 0 0-.616-1.529c-.53-1.27-1.2-2.802-2.022-4.598-2.348-5.127-5.447-11.347-9.39-18.685-2.766-5.149-5.712-7.33-8.762-6.896-2.376.338-4.577 2.22-6.593 5.13A29.584 29.584 0 0 0 .744 10.4c-.21.414-.394.799-.55 1.145-.095.21-.16.36-.194.442l.924.382c.03-.073.09-.213.18-.412.152-.333.329-.705.532-1.106a28.602 28.602 0 0 1 1.983-3.356C5.49 4.792 7.5 3.073 9.53 2.785c2.553-.363 5.151 1.56 7.74 6.38 3.933 7.319 7.022 13.52 9.362 18.628a146.884 146.884 0 0 1 2.008 4.566c.154.37.287.693.398.972l-8.898 2.233z" fill="#231F1F" fill-rule="nonzero"/><path d="M28.418 4.723a13.571 13.571 0 0 0-1.376-2.308C25.976.985 24.81.083 23.529.005c-1.649-.1-3.17 1.196-4.535 4.016-.614 1.268-1.202 2.85-1.762 4.767l.96.28c.546-1.866 1.114-3.398 1.702-4.611 1.208-2.495 2.415-3.524 3.574-3.454.912.056 1.866.793 2.772 2.01a12.588 12.588 0 0 1 1.266 2.12l.912-.41zM9.313 18.185a41.45 41.45 0 0 1-1.912-3.741 43.31 43.31 0 0 1-.723-1.696l-.932.36a44.305 44.305 0 0 0 .744 1.747 42.427 42.427 0 0 0 1.959 3.833c1.302 2.238 2.631 3.939 3.973 4.897l.476.34.261-.523c.048-.095.126-.268.226-.512.163-.4.325-.86.477-1.37.586-1.98.847-4.15.597-6.397l-.994.11c.234 2.103-.01 4.142-.562 6.003-.125.422-.258.806-.392 1.145-1.048-.912-2.129-2.359-3.198-4.196zM24.646 17.124c-.658-1.29-1.088-2.566-1.186-3.737l-.996.083c.11 1.32.58 2.712 1.292 4.108.284.557.588 1.077.893 1.547.183.284.328.49.413.603l.486.647.361-.723c.444-.887.744-1.989.926-3.258.22-1.547.25-3.181.166-4.674-.015-.276-.03-.478-.041-.59l-.996.096c.01.098.024.287.039.55.08 1.432.052 3.005-.158 4.476a11.7 11.7 0 0 1-.487 2.125 16.344 16.344 0 0 1-.712-1.253z" fill="#231F1F" fill-rule="nonzero"/><path d="M12.212 49.303c0-4.764 4.533-8.625 10.125-8.625s10.125 3.861 10.125 8.625c0 4.764-1.658 9.875-7.25 9.875-5.592 0-13-5.11-13-9.875" fill="#FFF"/><path d="M12.712 49.303c0 4.284 6.933 9.375 12.5 9.375 4.557 0 6.75-3.69 6.75-9.375 0-4.468-4.293-8.125-9.625-8.125s-9.625 3.657-9.625 8.125zm-1 0c0-5.06 4.773-9.125 10.625-9.125s10.625 4.066 10.625 9.125c0 6.165-2.502 10.375-7.75 10.375-6.064 0-13.5-5.46-13.5-10.375z" fill="#231F1F" fill-rule="nonzero"/><path d="M31.549 50.223c-.17.487-.415.974-.751 1.426-1.875 2.53-5.576 3.033-11.873.077l-.425.905c6.693 3.142 10.912 2.568 13.101-.386.687-.926 1.008-1.85 1.106-2.491l.076-.508-.509-.064c-.428-.053-.94-.33-1.51-.817-.818-.701-1.707-1.793-2.622-3.165a38.597 38.597 0 0 1-1.72-2.861 40.256 40.256 0 0 1-.677-1.296l-.9.438c.034.068.097.195.188.371.15.292.321.617.512.967.547 1 1.142 2 1.765 2.935.961 1.442 1.902 2.599 2.804 3.37.512.44 1.009.752 1.494.921a5.654 5.654 0 0 1-.059.178z" fill="#231F1F" fill-rule="nonzero"/></g></svg>