<svg width="32" height="64" viewBox="0 0 32 64" xmlns="http://www.w3.org/2000/svg"><title>CCEBFF82-6BD9-4EBA-820F-900144B2A0EF</title><g fill="none" fill-rule="evenodd"><path d="M.249 15.688l-.25.968 12.078 3.106.171-.387c4.413-9.956 8.177-15.558 11.287-17.567 2.127-1.374 3.695-.934 4.921.666a6.45 6.45 0 0 1 .864 1.533l.942-.336a7.438 7.438 0 0 0-1.012-1.806c-1.52-1.983-3.652-2.58-6.257-.897-3.275 2.116-7.075 7.735-11.487 17.615L.25 15.688z" fill="#231F1F" fill-rule="nonzero"/><path fill="#231F1F" fill-rule="nonzero" d="M12.29 19.21l-.997-.075-2.068 27.91 5.136-2.766-.474-.88-3.53 1.9zM20.557 25.133a32.31 32.31 0 0 1-1.167-4.094 34.806 34.806 0 0 1-.354-1.856l-.99.145a35.8 35.8 0 0 0 .366 1.925 33.286 33.286 0 0 0 1.206 4.222c.9 2.472 2.005 4.356 3.364 5.424l.337.265.313-.293c.38-.354.91-1.133 1.426-2.439 1.263-3.199 1.736-7.929.98-14.484l-.994.115c.739 6.4.282 10.967-.916 14.002-.271.687-.559 1.232-.843 1.649a5.755 5.755 0 0 1-.054.078c-1.025-.98-1.92-2.591-2.674-4.659zM6.504 31.971c-.305-.43-.617-1.056-.914-1.915-.645-1.867-1.107-4.517-1.3-8.077l-.998.054c.197 3.647.675 6.387 1.353 8.35.567 1.643 1.165 2.486 1.619 2.789l.34.227.29-.29c.964-.963 1.559-2.321 1.855-3.966.265-1.47.273-3.023.128-4.475-.034-.346-.069-.601-.093-.744l-.986.164c.02.122.052.356.084.679.136 1.367.129 2.834-.117 4.199-.223 1.238-.627 2.272-1.232 3.045a4.291 4.291 0 0 1-.029-.04z"/><path d="M12.125 53.84s11.5-4.5 18.167.166c6.666 4.666-16.167 9.333-16.167 9.333s-5 .667-5.167-3.833c-.166-4.5 3.167-5.667 3.167-5.667" fill="#FFF"/><path d="M12.307 54.305a2.816 2.816 0 0 0-.43.208c-.334.191-.669.443-.982.761-.957.973-1.507 2.344-1.438 4.214.064 1.719.875 2.682 2.237 3.126.736.24 1.527.296 2.212.244.077-.006.13-.011.119-.009a97.14 97.14 0 0 0 2.699-.614 87.801 87.801 0 0 0 5.942-1.65c3.21-1.026 5.685-2.088 7.105-3.138 1.548-1.145 1.666-2.027.238-3.028-1.746-1.223-3.948-1.864-6.51-2.003-2.573-.139-5.345.23-8.093.932-.824.21-1.584.436-2.261.66-.405.135-.69.239-.838.297zm.522-1.245a34.431 34.431 0 0 1 2.33-.681c2.838-.725 5.706-1.107 8.395-.961 2.734.148 5.113.84 7.024 2.179 2.061 1.445 1.833 3.14-.213 4.654-1.531 1.132-4.086 2.23-7.395 3.287a88.773 88.773 0 0 1-6.01 1.67c-.717.173-1.383.327-1.98.459-.36.08-.617.134-.79.168a3.924 3.924 0 0 1-.21.02c-.803.06-1.716-.003-2.596-.29-1.742-.569-2.846-1.88-2.926-4.04-.08-2.15.577-3.785 1.724-4.952.65-.662 1.306-1.039 1.769-1.203.165-.064.464-.172.878-.31z" fill="#231F1F" fill-rule="nonzero"/><path d="M11.584 59.338c.098.008.28.02.535.031 2.457.113 5.292-.033 8-.644 2.745-.62 4.983-1.656 6.526-3.2l-.707-.706c-1.39 1.389-3.462 2.349-6.04 2.93-2.605.588-5.358.73-7.733.621a15.4 15.4 0 0 1-.5-.03l-.081.998z" fill="#231F1F" fill-rule="nonzero"/></g></svg>