<svg width="32" height="61" viewBox="0 0 32 61" xmlns="http://www.w3.org/2000/svg"><title>163AAEAE-EB2B-4CBB-9DC9-5C71749DE0C1</title><g fill="none" fill-rule="evenodd"><path d="M24.128 34.429l-6.444.306.047 1 7.556-.36-4.418-28.55-.994.077c0 1.119-3.752 1.826-9.672 1.875a118.54 118.54 0 0 1-7.226-.186A133.139 133.139 0 0 1 .08 8.403L0 9.4a134.134 134.134 0 0 0 2.924.19c2.472.133 4.962.206 7.288.187 4.997-.041 8.415-.448 9.87-1.492l4.046 26.144z" fill="#231F1F" fill-rule="nonzero"/><path d="M27.358 10.926a42.73 42.73 0 0 0 3.991 1.13l.217-.976a41.735 41.735 0 0 1-3.882-1.1c-1.91-.658-3.22-1.347-3.542-1.91l-.29-.507-2.957 2.365.625.78 2.11-1.687c.675.678 1.959 1.295 3.728 1.905zM4.733 14.476a75.74 75.74 0 0 0 .674 1.891 69.4 69.4 0 0 0 1.688 4.156c.808 1.803 1.596 3.292 2.347 4.365.87 1.243 1.682 1.93 2.515 1.93 1.607 0 2.435-2.159 2.903-5.811.152-1.192.25-2.465.304-3.738a50.826 50.826 0 0 0 .043-1.7h-1c0 .08 0 .235-.005.452a49.83 49.83 0 0 1-.037 1.206 43.934 43.934 0 0 1-.297 3.653c-.392 3.066-1.11 4.938-1.91 4.938-.398 0-1.002-.511-1.697-1.503-.708-1.012-1.47-2.45-2.253-4.201a74.745 74.745 0 0 1-2.326-5.954l-.949.316zM29.22 17.708l-.077.328a62.224 62.224 0 0 1-.945 3.51c-.368 1.201-.725 2.171-1.054 2.818-.238.469-.443.704-.436.704.034 0-.03-.05-.137-.202-.368-.526-.794-1.66-1.226-3.184a57.272 57.272 0 0 1-.897-3.712l-.98.196a58.267 58.267 0 0 0 .915 3.788c.462 1.633.915 2.837 1.369 3.485.276.395.577.63.956.63.53 0 .918-.446 1.328-1.252.36-.71.735-1.726 1.118-2.977a63.219 63.219 0 0 0 1.04-3.911l-.974-.22z" fill="#231F1F" fill-rule="nonzero"/><path d="M16.707 44.568s10.5 1.25 10.75 6.375-3.625 9.5-10.25 8.625-14.75-7.875-13.375-11.875 12.875-3.125 12.875-3.125" fill="#FFF"/><path d="M15.963 45.027c-1.825-.08-3.826-.053-5.703.16-3.31.377-5.473 1.268-5.955 2.669C3.08 51.42 10.827 58.22 17.273 59.073c5.932.783 9.939-2.905 9.685-8.105-.095-1.957-1.95-3.501-5.045-4.63a25.115 25.115 0 0 0-3.624-.997 26.948 26.948 0 0 0-1.63-.275c-.13-.01-.369-.024-.696-.039zm.782-.957c.111.012.274.034.5.07.376.057.793.13 1.241.22 1.284.258 2.568.6 3.77 1.039 3.436 1.252 5.58 3.038 5.7 5.52.285 5.823-4.264 10.01-10.814 9.145-6.982-.922-15.272-8.2-13.782-12.533.655-1.907 3.11-2.919 6.787-3.337 1.937-.22 3.987-.249 5.86-.166.348.016.6.031.738.042z" fill="#231F1F" fill-rule="nonzero"/><path d="M25.565 53.008c-.108.137-.38.374-.846.622-3.253 1.737-9.018.664-17.979-5.474l-.565.825c9.238 6.329 15.381 7.471 19.015 5.531.593-.316.97-.644 1.16-.884l-.785-.62zM21.02 2.026c.4.408.81.68 1.252.744.212.03.422.01.621-.07 1.146-.46 3.823.417 6.294 2.889l.707-.707c-2.729-2.73-5.807-3.739-7.373-3.11a.2.2 0 0 1-.107.008c-.173-.024-.42-.19-.682-.455a3.924 3.924 0 0 1-.441-.534L20.764 0l-.354.881c.021-.052-.414.131-1.021.292-.823.218-1.997.451-3.426.692a120.898 120.898 0 0 1-4.405.653l-.413.053.125.992c.076-.01.219-.027.418-.054a138.254 138.254 0 0 0 4.44-.658c1.458-.245 2.657-.484 3.517-.711.49-.13.862-.246 1.134-.376.073.085.153.173.24.261z" fill="#231F1F" fill-rule="nonzero"/></g></svg>